<svg width="17" height="17" viewBox="0 0 17 17" fill="none" xmlns="http://www.w3.org/2000/svg">
<path d="M14.5098 0H8.5L6.50781 8.5L10.9902 17H14.5098C15.8829 17 17 15.8829 17 14.5098V2.49023C17 1.1171 15.8829 0 14.5098 0Z" fill="#3D4EC6"/>
<path d="M2.49023 0C1.1171 0 0 1.1171 0 2.49023V14.5098C0 15.8829 1.1171 17 2.49023 17H8.5V0H2.49023Z" fill="#5766CE"/>
<path d="M6.67383 7.96875H9.49609V10.459H6.67383V7.96875Z" fill="white"/>
<path d="M13.3145 5.47852V2.98828H10.9902C9.6149 2.98828 8.5 4.10318 8.5 5.47852V17H10.9902V10.459H12.8164L13.3145 7.96875H10.9902V5.47852H13.3145Z" fill="#E1E7FF"/>
</svg>
