<svg width="18" height="18" viewBox="0 0 18 18" fill="none" xmlns="http://www.w3.org/2000/svg">
<path d="M1.17261 7.02917H16.4553V18H1.17261V7.02917Z" fill="#7584F2"/>
<path d="M8.81396 7.02917H16.4553V18H8.81396V7.02917Z" fill="#606AEA"/>
<path d="M12.3751 16.5509C10.6714 16.5509 9.2854 15.1649 9.2854 13.4612C9.2854 11.7576 10.6714 10.3716 12.3751 10.3716C12.9942 10.3716 13.5917 10.5542 14.1032 10.8997L13.2818 12.1154C13.0139 11.9344 12.7004 11.8387 12.3752 11.8387C11.4804 11.8387 10.7526 12.5666 10.7526 13.4612C10.7526 14.3559 11.4805 15.0838 12.3752 15.0838C13.006 15.0838 13.554 14.7219 13.8222 14.1948H12.7284V12.7277H15.4648V13.4612C15.4648 15.1649 14.0788 16.5509 12.3751 16.5509Z" fill="white"/>
<path d="M8.81398 7.02919L6.61051 7.43365L4.40698 7.02919L4.85416 0.687134H9.15853L8.81398 7.02919Z" fill="#4855B7"/>
<path d="M6.6107 9.8376C5.39371 9.8376 4.40723 8.85106 4.40723 7.63412V7.02917H8.81417V7.63412C8.81417 8.85106 7.82763 9.8376 6.6107 9.8376Z" fill="#344293"/>
<path d="M4.407 7.02919L2.26994 7.36619L0 7.02919L1.73772 0.687134H5.13371L4.407 7.02919Z" fill="#7584F2"/>
<path d="M2.20347 9.8376C0.986488 9.8376 0 8.85106 0 7.63412V7.02917H4.407V7.63412C4.40695 8.85106 3.42041 9.8376 2.20347 9.8376V9.8376Z" fill="#4B60C6"/>
<path d="M8.81396 7.02919L11.0174 7.36619L13.221 7.02919L12.7868 0.687134H8.81396V7.02919Z" fill="#606AEA"/>
<path d="M11.0174 9.8376C12.2344 9.8376 13.2209 8.85106 13.2209 7.63412V7.02917H8.81396V7.63412C8.81396 8.85106 9.8005 9.8376 11.0174 9.8376Z" fill="#4855B7"/>
<path d="M13.2211 7.02919L15.5833 7.36619L17.6281 7.02919L15.8904 0.687134H12.4944L13.2211 7.02919Z" fill="#27488F"/>
<path d="M15.4245 9.8376C16.6415 9.8376 17.6279 8.85106 17.6279 7.63412V7.02917H13.2209V7.63412C13.221 8.85106 14.2075 9.8376 15.4245 9.8376Z" fill="#12254C"/>
</svg>
