<svg width="15" height="19" viewBox="0 0 15 19" fill="none" xmlns="http://www.w3.org/2000/svg">
<path d="M5.45807 12.069C5.76855 11.9896 5.97806 11.6985 5.99899 11.3271C6.01839 10.9472 5.82495 10.6103 5.50597 10.489L4.62516 10.1246C1.60857 8.86049 1.94118 9.75889 1.78928 9.75768C1.55611 9.74828 1.34842 9.86713 1.205 10.0958C0.901493 10.5903 0.305997 11.1997 0.4103 12.2333C0.447594 12.5745 0.508538 12.8589 0.596468 13.029C0.717447 13.263 0.922111 13.4034 1.15558 13.411C1.30506 13.4195 1.39754 13.3934 4.20492 12.4762C4.20492 12.4756 5.452 12.0717 5.45807 12.069Z" fill="#CC2414"/>
<path d="M7.03104 13.2373C6.68265 13.1014 6.56258 13.9058 6.35216 14.1736C6.35216 14.1736 5.73726 14.9158 5.73514 14.9158C3.61997 17.437 3.27857 16.8333 3.22672 16.9824C3.19549 17.0716 3.18245 17.1644 3.19367 17.2578C3.2064 17.3906 3.26492 17.5234 3.36407 17.6459C3.85375 18.2386 6.2042 19.1173 6.95463 18.9869C7.21599 18.9381 7.40519 18.7893 7.48645 18.5661C7.53496 18.423 7.54103 18.3238 7.54891 15.3272C7.54891 15.3272 7.55619 14.0038 7.55649 13.9895C7.5762 13.666 7.37032 13.371 7.03104 13.2373Z" fill="#CC2414"/>
<path d="M9.87041 10.6761C9.87041 10.6761 9.85737 10.6985 9.85343 10.7034C10.0111 10.6421 10.2919 10.5727 10.8043 10.4493C13.9922 9.66491 14.1153 9.62246 14.2414 9.53908C14.434 9.40779 14.5307 9.18615 14.5143 8.9166C14.5143 8.9075 14.5155 8.89931 14.5143 8.88931C14.4324 8.09491 13.4458 6.92605 12.77 6.5901C12.5307 6.47336 12.2906 6.48185 12.0935 6.61617C11.9701 6.69834 11.4935 5.92032 9.78673 8.29199C9.78673 8.29199 9.01477 9.35988 9.00567 9.37019C8.80192 9.62095 8.8004 9.98176 8.99809 10.2904C9.20397 10.6103 9.55205 10.7655 9.87041 10.6761Z" fill="#CC2414"/>
<path d="M7.12318 0.509339C7.05768 0.27011 6.87394 0.0984959 6.60803 0.0302746C5.79453 -0.175299 4.29578 1.02964 3.71939 1.63454C3.53474 1.83041 3.4653 2.07267 3.52079 2.28552C3.61114 2.47563 5.85456 8.31779 5.85456 8.31779C6.4252 9.25652 6.88971 9.11128 7.04161 9.06307C7.19291 9.01517 7.6547 8.86932 7.60254 7.77445C7.54766 6.49189 7.16805 0.774644 7.12318 0.509339Z" fill="#CC2414"/>
<path d="M11.3744 12.7633C11.3744 12.7633 10.611 12.6066 10.5949 12.5987C10.2975 12.482 9.95695 12.589 9.72864 12.8773C9.49214 13.1718 9.45515 13.5577 9.64465 13.8519L9.67315 14.414C11.3393 17.1626 11.466 17.3566 11.5867 17.4521C11.7716 17.6004 12.0069 17.6249 12.2528 17.5237C12.9611 17.2371 14.5075 15.239 14.6169 14.4701C14.6539 14.203 14.5717 13.9719 14.3901 13.8255C14.271 13.7342 14.1788 13.6987 11.3744 12.7633Z" fill="#CC2414"/>
</svg>
